<?xml version="1.0" encoding="UTF-8" standalone="no"?>
<!-- Created with Inkscape (http://www.inkscape.org/) -->

<svg
   xmlns:dc="http://purl.org/dc/elements/1.1/"
   xmlns:cc="http://creativecommons.org/ns#"
   xmlns:rdf="http://www.w3.org/1999/02/22-rdf-syntax-ns#"
   xmlns:svg="http://www.w3.org/2000/svg"
   xmlns="http://www.w3.org/2000/svg"
   xmlns:sodipodi="http://sodipodi.sourceforge.net/DTD/sodipodi-0.dtd"
   xmlns:inkscape="http://www.inkscape.org/namespaces/inkscape"
   width="744.09448"
   height="1052.3622"
   id="svg2"
   version="1.1"
   inkscape:version="0.48.5 r10040"
   sodipodi:docname="side_mount.svg">
  <defs
     id="defs4" />
  <sodipodi:namedview
     id="base"
     pagecolor="#ffffff"
     bordercolor="#666666"
     borderopacity="1.0"
     inkscape:pageopacity="0.0"
     inkscape:pageshadow="2"
     inkscape:zoom="0.69999999"
     inkscape:cx="325.53686"
     inkscape:cy="330.39455"
     inkscape:document-units="mm"
     inkscape:current-layer="layer1"
     showgrid="false"
     units="mm"
     inkscape:object-nodes="true"
     inkscape:snap-object-midpoints="true"
     inkscape:window-width="1280"
     inkscape:window-height="660"
     inkscape:window-x="1672"
     inkscape:window-y="-8"
     inkscape:window-maximized="1" />
  <metadata
     id="metadata7">
    <rdf:RDF>
      <cc:Work
         rdf:about="">
        <dc:format>image/svg+xml</dc:format>
        <dc:type
           rdf:resource="http://purl.org/dc/dcmitype/StillImage" />
        <dc:title></dc:title>
      </cc:Work>
    </rdf:RDF>
  </metadata>
  <g
     inkscape:label="Layer 1"
     inkscape:groupmode="layer"
     id="layer1"
     transform="translate(0,-2.5390623e-6)">
    <path
       style="fill:#000000;fill-opacity:1;stroke:none"
       d="M 137.71875 235.21875 L 120 252.9375 L 120 306.0625 L 208.59375 306.0625 L 226.3125 323.78125 L 226.3125 394.65625 L 208.59375 412.375 L 198.21875 412.375 L 120 412.375 L 120 465.53125 L 137.71875 483.25 L 306.03125 483.25 L 323.75 465.53125 L 323.75 252.9375 L 306.03125 235.21875 L 137.71875 235.21875 z "
       transform="translate(0,2.5390623e-6)"
       id="rect2985" />
    <path
       inkscape:connector-curvature="0"
       id="path2998"
       d="m 56.071428,232.36219 0,17.71875 17.71875,-17.71875 -17.71875,0 z"
       style="fill:#ff0000;fill-opacity:1;stroke:none" />
    <path
       style="fill:#ff0000;fill-opacity:1;stroke:none"
       d="m 35.35386,231.6906 -17.718751,0 17.718749,17.71875 2e-6,-17.71875 z"
       id="path3010"
       inkscape:connector-curvature="0" />
    <path
       inkscape:connector-curvature="0"
       id="path3012"
       d="m 32.323402,211.02355 -17.718751,0 17.718749,-17.71875 2e-6,17.71875 z"
       style="fill:#ff0000;fill-opacity:1;stroke:none" />
    <path
       style="fill:#ff0000;fill-opacity:1;stroke:none"
       d="m 71.223715,187.91548 17.718751,0 -17.718749,-17.71875 -2e-6,17.71875 z"
       id="path3014"
       inkscape:connector-curvature="0" />
    <path
       style="fill:#ff0000;fill-opacity:1;stroke:none"
       d="M 323.75 252.9375 L 323.75 323.78125 L 341.46875 306.0625 L 412.34375 306.0625 L 430.0625 323.78125 L 430.0625 252.9375 L 323.75 252.9375 z "
       transform="translate(0,2.5390623e-6)"
       id="rect3021" />
    <path
       id="path3023"
       d="m 616.08046,235.22342 17.71875,17.71875 0,53.125 -88.59375,0 -17.71875,17.71875 0,70.875 17.71875,17.71875 10.375,0 78.21875,0 0,53.15625 -17.71875,17.71875 -168.3125,0 -17.71875,-17.71875 0,-212.59375 17.71875,-17.71875 168.3125,0 z"
       style="fill:#000000;fill-opacity:1;stroke:none"
       inkscape:connector-curvature="0" />
    <rect
       style="fill:#00ff00;fill-opacity:1;stroke:none"
       id="rect3025"
       width="76.535431"
       height="102.75591"
       x="300.36417"
       y="256.4808" />
    <path
       sodipodi:type="arc"
       style="fill:#00ff00;fill-opacity:1;stroke:none"
       id="path3031"
       sodipodi:cx="-192.93913"
       sodipodi:cy="264.44321"
       sodipodi:rx="20.203051"
       sodipodi:ry="20.203051"
       d="m -172.73608,264.44321 c 0,11.15783 -9.04522,20.20305 -20.20305,20.20305 -11.15784,0 -20.20305,-9.04522 -20.20305,-20.20305 0,-11.15784 9.04521,-20.20305 20.20305,-20.20305 11.15783,0 20.20305,9.04521 20.20305,20.20305 z"
       transform="matrix(0.52615427,0,0,0.52615427,401.87991,117.34288)" />
    <rect
       style="fill:#ff00ff;fill-opacity:1;stroke:none"
       id="rect3033"
       width="159.44882"
       height="32.324883"
       x="140.91534"
       y="224.15591" />
    <path
       transform="matrix(0.52615427,0,0,0.52615427,242.43109,117.34287)"
       d="m -172.73608,264.44321 c 0,11.15783 -9.04522,20.20305 -20.20305,20.20305 -11.15784,0 -20.20305,-9.04522 -20.20305,-20.20305 0,-11.15784 9.04521,-20.20305 20.20305,-20.20305 11.15783,0 20.20305,9.04521 20.20305,20.20305 z"
       sodipodi:ry="20.203051"
       sodipodi:rx="20.203051"
       sodipodi:cy="264.44321"
       sodipodi:cx="-192.93913"
       id="path3035"
       style="fill:#00ff00;fill-opacity:1;stroke:none"
       sodipodi:type="arc" />
    <path
       transform="matrix(0.52615427,0,0,-0.52615427,401.87991,601.13055)"
       d="m -172.73608,264.44321 c 0,11.15783 -9.04522,20.20305 -20.20305,20.20305 -11.15784,0 -20.20305,-9.04522 -20.20305,-20.20305 0,-11.15784 9.04521,-20.20305 20.20305,-20.20305 11.15783,0 20.20305,9.04521 20.20305,20.20305 z"
       sodipodi:ry="20.203051"
       sodipodi:rx="20.203051"
       sodipodi:cy="264.44321"
       sodipodi:cx="-192.93913"
       id="path3049"
       style="fill:#00ff00;fill-opacity:1;stroke:none"
       sodipodi:type="arc" />
    <path
       sodipodi:type="arc"
       style="fill:#00ff00;fill-opacity:1;stroke:none"
       id="path3053"
       sodipodi:cx="-192.93913"
       sodipodi:cy="264.44321"
       sodipodi:rx="20.203051"
       sodipodi:ry="20.203051"
       d="m -172.73608,264.44321 c 0,11.15783 -9.04522,20.20305 -20.20305,20.20305 -11.15784,0 -20.20305,-9.04522 -20.20305,-20.20305 0,-11.15784 9.04521,-20.20305 20.20305,-20.20305 11.15783,0 20.20305,9.04521 20.20305,20.20305 z"
       transform="matrix(0.52615427,0,0,-0.52615427,242.43109,601.13056)" />
    <rect
       style="fill:#000080;fill-opacity:1;stroke:none"
       id="rect3065"
       width="156.25984"
       height="70.866142"
       x="220.63976"
       y="288.37057" />
    <path
       sodipodi:type="arc"
       style="fill:#000080;fill-opacity:1;stroke:none"
       id="path3067"
       sodipodi:cx="242.94168"
       sodipodi:cy="144.74013"
       sodipodi:rx="18.687822"
       sodipodi:ry="18.687822"
       d="m 261.6295,144.74013 c 0,10.321 -8.36682,18.68782 -18.68782,18.68782 -10.321,0 -18.68782,-8.36682 -18.68782,-18.68782 0,-10.321 8.36682,-18.68782 18.68782,-18.68782 10.321,0 18.68782,8.36682 18.68782,18.68782 z"
       transform="matrix(0.37921027,0,0,0.37921027,128.51377,233.48363)" />
    <path
       transform="matrix(0.37921027,0,0,-0.37921027,128.51377,484.98979)"
       d="m 261.6295,144.74013 c 0,10.321 -8.36682,18.68782 -18.68782,18.68782 -10.321,0 -18.68782,-8.36682 -18.68782,-18.68782 0,-10.321 8.36682,-18.68782 18.68782,-18.68782 10.321,0 18.68782,8.36682 18.68782,18.68782 z"
       sodipodi:ry="18.687822"
       sodipodi:rx="18.687822"
       sodipodi:cy="144.74013"
       sodipodi:cx="242.94168"
       id="path3071"
       style="fill:#000080;fill-opacity:1;stroke:none"
       sodipodi:type="arc" />
    <rect
       style="fill:#000080;fill-opacity:1;stroke:none"
       id="rect3137"
       width="566.92914"
       height="531.49603"
       x="807.54547"
       y="25.109423"
       ry="35.433071"
       rx="35.433071" />
    <path
       inkscape:connector-curvature="0"
       id="path3146"
       d="m 860.68619,67.634015 c -5.8708,0 -10.625,4.75426 -10.625,10.625 0,5.87074 4.7542,10.625 10.625,10.625 l 141.75001,0 c 5.8707,0 10.625,-4.75426 10.625,-10.625 0,-5.87074 -4.7543,-10.625 -10.625,-10.625 l -141.75001,0 z"
       style="fill:#ffff00;fill-opacity:1;stroke:none" />
    <path
       style="fill:#ffff00;fill-opacity:1;stroke:none"
       d="m 1179.5838,67.634015 c -5.8708,0 -10.625,4.75426 -10.625,10.625 0,5.87074 4.7542,10.625 10.625,10.625 l 141.75,0 c 5.8707,0 10.625,-4.75426 10.625,-10.625 0,-5.87074 -4.7543,-10.625 -10.625,-10.625 l -141.75,0 z"
       id="path3150"
       inkscape:connector-curvature="0" />
    <path
       inkscape:connector-curvature="0"
       id="path3152"
       d="m 1179.5838,492.83085 c -5.8708,0 -10.625,4.75426 -10.625,10.625 0,5.87074 4.7542,10.625 10.625,10.625 l 141.75,0 c 5.8707,0 10.625,-4.75426 10.625,-10.625 0,-5.87074 -4.7543,-10.625 -10.625,-10.625 l -141.75,0 z"
       style="fill:#ffff00;fill-opacity:1;stroke:none" />
    <path
       style="fill:#ffff00;fill-opacity:1;stroke:none"
       d="m 860.68619,492.83085 c -5.8708,0 -10.625,4.75426 -10.625,10.625 0,5.87074 4.7542,10.625 10.625,10.625 l 141.75001,0 c 5.8707,0 10.625,-4.75426 10.625,-10.625 0,-5.87074 -4.7543,-10.625 -10.625,-10.625 l -141.75001,0 z"
       id="path3154"
       inkscape:connector-curvature="0" />
    <path
       style="fill:#000080;fill-opacity:1;stroke:none"
       d="M 830.84375 736.25 C 811.21383 736.25 795.4375 752.05758 795.4375 771.6875 L 795.4375 1232.3125 C 795.4375 1251.9424 811.21383 1267.75 830.84375 1267.75 L 1326.9062 1267.75 C 1346.5362 1267.75 1362.3438 1251.9424 1362.3438 1232.3125 L 1362.3438 771.6875 C 1362.3438 752.05758 1346.5362 736.25 1326.9062 736.25 L 830.84375 736.25 z M 848.5625 778.78125 L 990.3125 778.78125 C 996.1832 778.78125 1000.9375 783.53551 1000.9375 789.40625 C 1000.9375 795.27699 996.1832 800.03125 990.3125 800.03125 L 848.5625 800.03125 C 842.6917 800.03125 837.9375 795.27699 837.9375 789.40625 C 837.9375 783.53551 842.6917 778.78125 848.5625 778.78125 z M 1167.4688 778.78125 L 1309.2188 778.78125 C 1315.0893 778.78125 1319.8438 783.53551 1319.8438 789.40625 C 1319.8438 795.27699 1315.0893 800.03125 1309.2188 800.03125 L 1167.4688 800.03125 C 1161.5979 800.03125 1156.8438 795.27699 1156.8438 789.40625 C 1156.8438 783.53551 1161.5979 778.78125 1167.4688 778.78125 z M 848.5625 1203.9688 L 990.3125 1203.9688 C 996.1832 1203.9688 1000.9375 1208.723 1000.9375 1214.5938 C 1000.9375 1220.4644 996.1832 1225.2188 990.3125 1225.2188 L 848.5625 1225.2188 C 842.6917 1225.2188 837.9375 1220.4644 837.9375 1214.5938 C 837.9375 1208.723 842.6917 1203.9688 848.5625 1203.9688 z M 1167.4688 1203.9688 L 1309.2188 1203.9688 C 1315.0893 1203.9688 1319.8438 1208.723 1319.8438 1214.5938 C 1319.8438 1220.4644 1315.0893 1225.2188 1309.2188 1225.2188 L 1167.4688 1225.2188 C 1161.5979 1225.2188 1156.8438 1220.4644 1156.8438 1214.5938 C 1156.8438 1208.723 1161.5979 1203.9688 1167.4688 1203.9688 z "
       transform="translate(0,2.5390623e-6)"
       id="rect3175" />
    <path
       style="fill:none;fill-opacity:1;stroke:#000000;stroke-opacity:1;stroke-width:2;stroke-miterlimit:4;stroke-dasharray:none"
       d="M 155.90625 617.0625 L 138.1875 634.78125 L 138.1875 687.90625 L 226.78125 687.90625 L 244.5 705.625 L 244.5 776.5 L 226.78125 794.21875 L 216.40625 794.21875 L 138.1875 794.21875 L 138.1875 847.375 L 155.90625 865.09375 L 324.21875 865.09375 L 341.9375 847.375 L 341.9375 705.625 L 359.65625 687.90625 L 430.53125 687.90625 L 448.25 705.625 L 448.25 847.375 L 465.96875 865.09375 L 634.28125 865.09375 L 652 847.375 L 652 794.21875 L 573.78125 794.21875 L 563.40625 794.21875 L 545.6875 776.5 L 545.6875 705.625 L 563.40625 687.90625 L 652 687.90625 L 652 634.78125 L 634.28125 617.0625 L 465.96875 617.0625 L 448.25 634.78125 L 341.9375 634.78125 L 324.21875 617.0625 L 155.90625 617.0625 z M 159.09375 627.6875 C 164.96449 627.6875 169.71875 632.44176 169.71875 638.3125 C 169.71875 644.18324 164.96449 648.9375 159.09375 648.9375 C 153.22301 648.9375 148.46875 644.18324 148.46875 638.3125 C 148.46875 632.44176 153.22301 627.6875 159.09375 627.6875 z M 318.5625 627.6875 C 324.43324 627.6875 329.1875 632.44176 329.1875 638.3125 C 329.1875 644.18324 324.43324 648.9375 318.5625 648.9375 C 312.69176 648.9375 307.90625 644.18324 307.90625 638.3125 C 307.90625 632.44176 312.69176 627.6875 318.5625 627.6875 z M 471.625 627.6875 C 477.49574 627.6875 482.28125 632.44176 482.28125 638.3125 C 482.28125 644.18324 477.49574 648.9375 471.625 648.9375 C 465.75426 648.9375 461 644.18324 461 638.3125 C 461 632.44176 465.75426 627.6875 471.625 627.6875 z M 631.09375 627.6875 C 636.96449 627.6875 641.71875 632.44176 641.71875 638.3125 C 641.71875 644.18324 636.96449 648.9375 631.09375 648.9375 C 625.22301 648.9375 620.46875 644.18324 620.46875 638.3125 C 620.46875 632.44176 625.22301 627.6875 631.09375 627.6875 z M 238.8125 663.125 C 242.72633 663.125 245.90625 666.30492 245.90625 670.21875 C 245.90625 674.13258 242.72633 677.28125 238.8125 677.28125 C 234.89867 677.28125 231.75 674.13258 231.75 670.21875 C 231.75 666.30492 234.89867 663.125 238.8125 663.125 z M 551.375 663.125 C 555.28883 663.125 558.4375 666.30492 558.4375 670.21875 C 558.4375 674.13258 555.28883 677.28125 551.375 677.28125 C 547.46117 677.28125 544.28125 674.13258 544.28125 670.21875 C 544.28125 666.30492 547.46117 663.125 551.375 663.125 z M 238.8125 804.84375 C 242.72633 804.84375 245.90625 808.02367 245.90625 811.9375 C 245.90625 815.85133 242.72633 819.03125 238.8125 819.03125 C 234.89867 819.03125 231.75 815.85133 231.75 811.9375 C 231.75 808.02367 234.89867 804.84375 238.8125 804.84375 z M 551.375 804.84375 C 555.28883 804.84375 558.4375 808.02367 558.4375 811.9375 C 558.4375 815.85133 555.28883 819.03125 551.375 819.03125 C 547.46117 819.03125 544.28125 815.85133 544.28125 811.9375 C 544.28125 808.02367 547.46117 804.84375 551.375 804.84375 z M 159.09375 833.1875 C 164.96449 833.1875 169.71875 837.97301 169.71875 843.84375 C 169.71875 849.71449 164.96449 854.46875 159.09375 854.46875 C 153.22301 854.46875 148.46875 849.71449 148.46875 843.84375 C 148.46875 837.97301 153.22301 833.1875 159.09375 833.1875 z M 318.5625 833.1875 C 324.43324 833.1875 329.1875 837.97301 329.1875 843.84375 C 329.1875 849.71449 324.43324 854.46875 318.5625 854.46875 C 312.69176 854.46875 307.90625 849.71449 307.90625 843.84375 C 307.90625 837.97301 312.69176 833.1875 318.5625 833.1875 z M 471.625 833.1875 C 477.49574 833.1875 482.28125 837.97301 482.28125 843.84375 C 482.28125 849.71449 477.49574 854.46875 471.625 854.46875 C 465.75426 854.46875 461 849.71449 461 843.84375 C 461 837.97301 465.75426 833.1875 471.625 833.1875 z M 631.09375 833.1875 C 636.96449 833.1875 641.71875 837.97301 641.71875 843.84375 C 641.71875 849.71449 636.96449 854.46875 631.09375 854.46875 C 625.22301 854.46875 620.46875 849.71449 620.46875 843.84375 C 620.46875 837.97301 625.22301 833.1875 631.09375 833.1875 z "
       transform="translate(0,2.5390623e-6)"
       id="path3883"
       inkscape:export-xdpi="90"
       inkscape:export-ydpi="90" />
  </g>
</svg>
