<?xml version="1.0" encoding="UTF-8" standalone="no"?>
<!-- Created with Inkscape (http://www.inkscape.org/) -->

<svg
   xmlns:dc="http://purl.org/dc/elements/1.1/"
   xmlns:cc="http://creativecommons.org/ns#"
   xmlns:rdf="http://www.w3.org/1999/02/22-rdf-syntax-ns#"
   xmlns:svg="http://www.w3.org/2000/svg"
   xmlns="http://www.w3.org/2000/svg"
   xmlns:sodipodi="http://sodipodi.sourceforge.net/DTD/sodipodi-0.dtd"
   xmlns:inkscape="http://www.inkscape.org/namespaces/inkscape"
   width="600"
   height="280"
   id="svg2"
   version="1.1"
   inkscape:version="0.48.5 r10040"
   sodipodi:docname="magnet_equals_current.svg">
  <defs
     id="defs4">
    <marker
       inkscape:stockid="Arrow1Sstart"
       orient="auto"
       refY="0"
       refX="0"
       id="Arrow1Sstart"
       style="overflow:visible">
      <path
         id="path3792"
         d="M 0,0 5,-5 -12.5,0 5,5 0,0 z"
         style="fill-rule:evenodd;stroke:#000000;stroke-width:1pt"
         transform="matrix(0.2,0,0,0.2,1.2,0)"
         inkscape:connector-curvature="0" />
    </marker>
    <marker
       inkscape:stockid="Arrow1Mstart"
       orient="auto"
       refY="0"
       refX="0"
       id="Arrow1Mstart"
       style="overflow:visible">
      <path
         id="path3786"
         d="M 0,0 5,-5 -12.5,0 5,5 0,0 z"
         style="fill-rule:evenodd;stroke:#000000;stroke-width:1pt"
         transform="matrix(0.4,0,0,0.4,4,0)"
         inkscape:connector-curvature="0" />
    </marker>
    <marker
       inkscape:stockid="Arrow1Mend"
       orient="auto"
       refY="0"
       refX="0"
       id="Arrow1Mend"
       style="overflow:visible">
      <path
         id="path3789"
         d="M 0,0 5,-5 -12.5,0 5,5 0,0 z"
         style="fill-rule:evenodd;stroke:#000000;stroke-width:1pt"
         transform="matrix(-0.4,0,0,-0.4,-4,0)"
         inkscape:connector-curvature="0" />
    </marker>
    <marker
       inkscape:stockid="Arrow1Lend"
       orient="auto"
       refY="0"
       refX="0"
       id="Arrow1Lend"
       style="overflow:visible">
      <path
         id="path3783"
         d="M 0,0 5,-5 -12.5,0 5,5 0,0 z"
         style="fill-rule:evenodd;stroke:#000000;stroke-width:1pt"
         transform="matrix(-0.8,0,0,-0.8,-10,0)"
         inkscape:connector-curvature="0" />
    </marker>
    <marker
       inkscape:stockid="Arrow1Lstart"
       orient="auto"
       refY="0"
       refX="0"
       id="Arrow1Lstart"
       style="overflow:visible">
      <path
         id="path3780"
         d="M 0,0 5,-5 -12.5,0 5,5 0,0 z"
         style="fill-rule:evenodd;stroke:#000000;stroke-width:1pt"
         transform="matrix(0.8,0,0,0.8,10,0)"
         inkscape:connector-curvature="0" />
    </marker>
  </defs>
  <sodipodi:namedview
     id="base"
     pagecolor="#ffffff"
     bordercolor="#666666"
     borderopacity="1.0"
     inkscape:pageopacity="0.0"
     inkscape:pageshadow="2"
     inkscape:zoom="0.9899495"
     inkscape:cx="326.84505"
     inkscape:cy="193.92848"
     inkscape:document-units="px"
     inkscape:current-layer="layer1"
     showgrid="false"
     inkscape:object-nodes="false"
     inkscape:window-width="1280"
     inkscape:window-height="660"
     inkscape:window-x="1672"
     inkscape:window-y="-8"
     inkscape:window-maximized="1" />
  <metadata
     id="metadata7">
    <rdf:RDF>
      <cc:Work
         rdf:about="">
        <dc:format>image/svg+xml</dc:format>
        <dc:type
           rdf:resource="http://purl.org/dc/dcmitype/StillImage" />
        <dc:title />
      </cc:Work>
    </rdf:RDF>
  </metadata>
  <g
     inkscape:label="Layer 1"
     inkscape:groupmode="layer"
     id="layer1"
     transform="translate(0,-772.36218)">
    <g
       id="g3125"
       transform="matrix(0.56918763,0,0,0.52251844,0.21780185,567.22932)">
      <text
         sodipodi:linespacing="125%"
         id="text6185"
         y="713.72998"
         x="451.08575"
         style="font-size:41.29508972px;font-style:normal;font-weight:normal;line-height:125%;letter-spacing:0px;word-spacing:0px;fill:#000000;fill-opacity:1;stroke:none;font-family:Sans"
         xml:space="preserve"><tspan
           style="font-size:148.662323px"
           y="713.72998"
           x="451.08575"
           id="tspan6187"
           sodipodi:role="line">=</tspan></text>
      <g
         transform="matrix(1.0323772,0,0,1.0323772,-32.563907,-24.289304)"
         id="g7069">
        <path
           style="fill:none;stroke:#000000;stroke-width:14.20931244;stroke-linejoin:round;stroke-miterlimit:4;stroke-opacity:1;stroke-dashoffset:0;marker-start:url(#Arrow1Sstart);marker-end:none"
           d="m 829.2435,679.04705 c -14.78878,4.68599 -33.67577,7.49632 -54.25345,7.49632 -47.42081,0 -85.86297,-14.9246 -85.86297,-33.33503 0,-18.41043 38.44216,-33.33503 85.86297,-33.33503 47.42081,0 85.86297,14.9246 85.86297,33.33503 0,4.21863 -2.01848,8.25424 -5.70093,11.96918"
           id="path6239"
           inkscape:connector-curvature="0"
           sodipodi:nodetypes="cssssc" />
        <text
           transform="scale(0.99629249,1.0037213)"
           sodipodi:linespacing="125%"
           id="text6193"
           y="579.2135"
           x="620.39587"
           style="font-size:21.16916847px;font-style:normal;font-weight:normal;line-height:125%;letter-spacing:0px;word-spacing:0px;fill:#0000ff;fill-opacity:1;stroke:none;font-family:Sans"
           xml:space="preserve"><tspan
             style="font-size:76.20899963px;fill:#0000ff;fill-opacity:1"
             y="579.2135"
             x="620.39587"
             id="tspan6195"
             sodipodi:role="line">N</tspan></text>
        <text
           transform="scale(0.99629249,1.0037213)"
           xml:space="preserve"
           style="font-size:21.16916847px;font-style:normal;font-weight:normal;line-height:125%;letter-spacing:0px;word-spacing:0px;fill:#ff0000;fill-opacity:1;stroke:none;font-family:Sans"
           x="621.44373"
           y="768.69592"
           id="text6197"
           sodipodi:linespacing="125%"><tspan
             sodipodi:role="line"
             id="tspan6199"
             x="621.44373"
             y="768.69592"
             style="font-size:76.20899963px;fill:#ff0000">S</tspan></text>
        <g
           transform="matrix(0.77444223,0,0,0.79430067,524.95578,130.05721)"
           style="fill:#0000ff;fill-opacity:1"
           id="g6201">
          <path
             inkscape:connector-curvature="0"
             id="path6203"
             d="m 184.75,449.90625 -2.8125,4.125 c 17.13918,11.66091 38.73153,24.24493 57.375,49.46875 18.64347,25.22382 34.39938,63.17063 39.1875,125.65625 l 5,-0.40625 C 278.65966,565.5829 262.61276,526.6014 243.34375,500.53125 224.07474,474.4611 201.65255,461.40616 184.75,449.90625 z"
             style="font-size:medium;font-style:normal;font-variant:normal;font-weight:normal;font-stretch:normal;text-indent:0;text-align:start;text-decoration:none;line-height:normal;letter-spacing:normal;word-spacing:normal;text-transform:none;direction:ltr;block-progression:tb;writing-mode:lr-tb;text-anchor:start;baseline-shift:baseline;color:#000000;fill:#0000ff;fill-opacity:1;stroke:none;stroke-width:5;marker:none;visibility:visible;display:inline;overflow:visible;enable-background:accumulate;font-family:Sans;-inkscape-font-specification:Sans" />
          <path
             inkscape:connector-curvature="0"
             id="path6205"
             d="m 199.87776,463.20863 13.89303,-2.64269 -34.56268,-11.42022 23.31234,27.95594 -2.64269,-13.89303 z"
             style="fill:#0000ff;fill-opacity:1;fill-rule:evenodd;stroke:#000000;stroke-width:0.90584936pt" />
        </g>
        <g
           transform="matrix(0.77444223,0,0,0.79430067,524.95578,130.05721)"
           style="fill:#0000ff;fill-opacity:1"
           id="g6207">
          <path
             inkscape:connector-curvature="0"
             id="path6209"
             d="m 438.75,446.15625 c -13.13342,13.64646 -29.29488,28.50418 -42.6875,56.03125 -13.39262,27.52707 -24.0204,67.65498 -26.78125,132.0625 l 5,0.21875 c 2.74113,-63.94742 13.26893,-103.34834 26.28125,-130.09375 13.01232,-26.74541 28.51828,-40.93645 41.8125,-54.75 l -3.625,-3.46875 z"
             style="font-size:medium;font-style:normal;font-variant:normal;font-weight:normal;font-stretch:normal;text-indent:0;text-align:start;text-decoration:none;line-height:normal;letter-spacing:normal;word-spacing:normal;text-transform:none;direction:ltr;block-progression:tb;writing-mode:lr-tb;text-anchor:start;baseline-shift:baseline;color:#000000;fill:#0000ff;fill-opacity:1;stroke:none;stroke-width:5;marker:none;visibility:visible;display:inline;overflow:visible;enable-background:accumulate;font-family:Sans;-inkscape-font-specification:Sans" />
          <path
             inkscape:connector-curvature="0"
             id="path6211"
             d="m 426.6907,462.31541 0.27088,14.13955 17.06494,-32.15258 -31.47536,18.28392 14.13954,-0.27089 z"
             style="fill:#0000ff;fill-opacity:1;fill-rule:evenodd;stroke:#000000;stroke-width:0.90584936pt" />
        </g>
        <g
           transform="matrix(0.77444223,0,0,0.79430067,524.95578,130.05721)"
           style="fill:#ff0000;fill-opacity:1"
           id="g6213">
          <path
             inkscape:connector-curvature="0"
             id="path6215"
             d="M 267.40625,728.25 C 252.33482,835.91682 218.40008,879.67602 187.0625,907.78125 l 3.34375,3.71875 c 31.93514,-28.64117 66.7793,-74.05258 81.96875,-182.5625 l -4.96875,-0.6875 z"
             style="font-size:medium;font-style:normal;font-variant:normal;font-weight:normal;font-stretch:normal;text-indent:0;text-align:start;text-decoration:none;line-height:normal;letter-spacing:normal;word-spacing:normal;text-transform:none;direction:ltr;block-progression:tb;writing-mode:lr-tb;text-anchor:start;baseline-shift:baseline;color:#000000;fill:#ff0000;fill-opacity:1;stroke:none;stroke-width:5;marker:none;visibility:visible;display:inline;overflow:visible;enable-background:accumulate;font-family:Sans;-inkscape-font-specification:Sans" />
          <path
             inkscape:connector-curvature="0"
             id="path6217"
             d="m 267.11939,748.39759 8.51714,11.28975 -5.05138,-36.04835 -14.75551,33.27574 11.28975,-8.51714 z"
             style="fill:#ff0000;fill-opacity:1;fill-rule:evenodd;stroke:#000000;stroke-width:0.90584936pt" />
        </g>
        <g
           transform="matrix(0.77444223,0,0,0.79430067,524.95578,130.05721)"
           style="fill:#ff0000;fill-opacity:1"
           id="g6219">
          <path
             inkscape:connector-curvature="0"
             id="path6221"
             d="m 380.125,715.0625 -4.96875,0.71875 c 15.18944,108.50992 50.03361,153.92141 81.96875,182.5625 l 3.34375,-3.71875 C 429.13119,866.51985 395.19642,822.72932 380.125,715.0625 z"
             style="font-size:medium;font-style:normal;font-variant:normal;font-weight:normal;font-stretch:normal;text-indent:0;text-align:start;text-decoration:none;line-height:normal;letter-spacing:normal;word-spacing:normal;text-transform:none;direction:ltr;block-progression:tb;writing-mode:lr-tb;text-anchor:start;baseline-shift:baseline;color:#000000;fill:#ff0000;fill-opacity:1;stroke:none;stroke-width:5;marker:none;visibility:visible;display:inline;overflow:visible;enable-background:accumulate;font-family:Sans;-inkscape-font-specification:Sans" />
          <path
             inkscape:connector-curvature="0"
             id="path6223"
             d="m 380.41985,735.23057 11.28974,8.51714 -14.7555,-33.27574 -5.05138,36.04835 8.51714,-11.28975 z"
             style="fill:#ff0000;fill-opacity:1;fill-rule:evenodd;stroke:#000000;stroke-width:0.90584936pt" />
        </g>
        <g
           transform="matrix(0.77444223,0,0,0.79430067,524.95578,130.05721)"
           style="fill:#0000ff;fill-opacity:1"
           id="g6225">
          <path
             inkscape:connector-curvature="0"
             id="path6227"
             d="m 321.0625,406.3125 -5,0.0312 1.4375,226.03125 5,-0.0312 -1.4375,-226.03125 z"
             style="font-size:medium;font-style:normal;font-variant:normal;font-weight:normal;font-stretch:normal;text-indent:0;text-align:start;text-decoration:none;line-height:normal;letter-spacing:normal;word-spacing:normal;text-transform:none;direction:ltr;block-progression:tb;writing-mode:lr-tb;text-anchor:start;baseline-shift:baseline;color:#000000;fill:#0000ff;fill-opacity:1;stroke:none;stroke-width:5;marker:none;visibility:visible;display:inline;overflow:visible;enable-background:accumulate;font-family:Sans;-inkscape-font-specification:Sans" />
          <path
             inkscape:connector-curvature="0"
             id="path6229"
             d="m 318.69783,426.31829 10.06299,9.9366 -10.22099,-34.9361 -9.77861,35.0625 9.93661,-10.063 z"
             style="fill:#0000ff;fill-opacity:1;fill-rule:evenodd;stroke:#000000;stroke-width:0.90584936pt" />
        </g>
        <g
           transform="matrix(0.77444223,0,0,0.79430067,524.95578,130.05721)"
           style="fill:#ff0000;fill-opacity:1"
           id="g6231">
          <path
             inkscape:connector-curvature="0"
             id="path6233"
             d="m 331.0625,729.5 -5,0.0312 1.4375,213.90625 5,-0.0312 L 331.0625,729.5 z"
             style="font-size:medium;font-style:normal;font-variant:normal;font-weight:normal;font-stretch:normal;text-indent:0;text-align:start;text-decoration:none;line-height:normal;letter-spacing:normal;word-spacing:normal;text-transform:none;direction:ltr;block-progression:tb;writing-mode:lr-tb;text-anchor:start;baseline-shift:baseline;color:#000000;fill:#ff0000;fill-opacity:1;stroke:none;stroke-width:5;marker:none;visibility:visible;display:inline;overflow:visible;enable-background:accumulate;font-family:Sans;-inkscape-font-specification:Sans" />
          <path
             inkscape:connector-curvature="0"
             id="path6235"
             d="m 328.70499,749.50459 10.06655,9.933 -10.2335,-34.93244 -9.76605,35.066 9.933,-10.06656 z"
             style="fill:#ff0000;fill-opacity:1;fill-rule:evenodd;stroke:#000000;stroke-width:0.90584936pt" />
        </g>
        <text
           xml:space="preserve"
           style="font-size:40px;font-style:normal;font-weight:normal;line-height:125%;letter-spacing:0px;word-spacing:0px;fill:#000000;fill-opacity:1;stroke:none;font-family:Sans"
           x="881.42859"
           y="663.79077"
           id="text7004"
           sodipodi:linespacing="125%"><tspan
             sodipodi:role="line"
             x="881.42859"
             y="663.79077"
             id="tspan7008">current</tspan></text>
      </g>
      <g
         transform="matrix(1.0323772,0,0,1.0323772,-32.563845,-28.608966)"
         id="g7096">
        <path
           sodipodi:type="arc"
           style="fill:none;stroke:#5b5b5b;stroke-width:26.84906387;stroke-linejoin:round;stroke-miterlimit:4;stroke-opacity:1;stroke-dasharray:none;stroke-dashoffset:0"
           id="path3759"
           sodipodi:cx="485"
           sodipodi:cy="331.95163"
           sodipodi:rx="130.71428"
           sodipodi:ry="53.57143"
           d="m 615.71428,331.95163 c 0,29.58668 -58.52278,53.57143 -130.71428,53.57143 -72.1915,0 -130.71428,-23.98475 -130.71428,-53.57143 0,-29.58668 58.52278,-53.57143 130.71428,-53.57143 72.1915,0 130.71428,23.98475 130.71428,53.57143 z"
           transform="matrix(0.52726708,0,0,0.53119862,38.163823,464.44651)" />
        <path
           style="fill:none;stroke:#5b5b5b;stroke-width:14.20931244;stroke-linejoin:round;stroke-miterlimit:4;stroke-opacity:1;stroke-dasharray:none;stroke-dashoffset:0"
           d="m 224.96702,640.77876 0,21.24795 c 0,15.71639 30.8595,28.45232 68.9237,28.45232 38.0642,0 68.92369,-12.73593 68.92369,-28.45232 l -0.005,-21.24795"
           id="path3761"
           inkscape:connector-curvature="0"
           sodipodi:nodetypes="csc" />
        <text
           xml:space="preserve"
           style="font-size:21.16916847px;font-style:normal;font-weight:normal;line-height:125%;letter-spacing:0px;word-spacing:0px;fill:#0000ff;fill-opacity:1;stroke:none;font-family:Sans"
           x="135.54228"
           y="583.3822"
           id="text3766"
           sodipodi:linespacing="125%"
           transform="scale(0.99629246,1.0037213)"><tspan
             sodipodi:role="line"
             id="tspan3768"
             x="135.54228"
             y="583.3822"
             style="font-size:76.20899963px;fill:#0000ff;fill-opacity:1">N</tspan></text>
        <text
           sodipodi:linespacing="125%"
           id="text3770"
           y="772.86462"
           x="136.59012"
           style="font-size:21.16916847px;font-style:normal;font-weight:normal;line-height:125%;letter-spacing:0px;word-spacing:0px;fill:#ff0000;fill-opacity:1;stroke:none;font-family:Sans"
           xml:space="preserve"
           transform="scale(0.99629246,1.0037213)"><tspan
             style="font-size:76.20899963px;fill:#ff0000"
             y="772.86462"
             x="136.59012"
             id="tspan3772"
             sodipodi:role="line">S</tspan></text>
        <g
           id="g6177"
           style="fill:#0000ff;fill-opacity:1"
           transform="matrix(0.77444223,0,0,0.79430067,41.899807,134.2414)">
          <path
             style="font-size:medium;font-style:normal;font-variant:normal;font-weight:normal;font-stretch:normal;text-indent:0;text-align:start;text-decoration:none;line-height:normal;letter-spacing:normal;word-spacing:normal;text-transform:none;direction:ltr;block-progression:tb;writing-mode:lr-tb;text-anchor:start;baseline-shift:baseline;color:#000000;fill:#0000ff;fill-opacity:1;stroke:none;stroke-width:5;marker:none;visibility:visible;display:inline;overflow:visible;enable-background:accumulate;font-family:Sans;-inkscape-font-specification:Sans"
             d="m 184.75,449.90625 -2.8125,4.125 c 17.13918,11.66091 38.73153,24.24493 57.375,49.46875 18.64347,25.22382 34.39938,63.17063 39.1875,125.65625 l 5,-0.40625 C 278.65966,565.5829 262.61276,526.6014 243.34375,500.53125 224.07474,474.4611 201.65255,461.40616 184.75,449.90625 z"
             id="path5187"
             inkscape:connector-curvature="0" />
          <path
             style="fill:#0000ff;fill-opacity:1;fill-rule:evenodd;stroke:#000000;stroke-width:0.90584936pt"
             d="m 199.87776,463.20863 13.89303,-2.64269 -34.56268,-11.42022 23.31234,27.95594 -2.64269,-13.89303 z"
             id="path6183"
             inkscape:connector-curvature="0" />
        </g>
        <g
           id="g6161"
           style="fill:#0000ff;fill-opacity:1"
           transform="matrix(0.77444223,0,0,0.79430067,41.899807,134.2414)">
          <path
             style="font-size:medium;font-style:normal;font-variant:normal;font-weight:normal;font-stretch:normal;text-indent:0;text-align:start;text-decoration:none;line-height:normal;letter-spacing:normal;word-spacing:normal;text-transform:none;direction:ltr;block-progression:tb;writing-mode:lr-tb;text-anchor:start;baseline-shift:baseline;color:#000000;fill:#0000ff;fill-opacity:1;stroke:none;stroke-width:5;marker:none;visibility:visible;display:inline;overflow:visible;enable-background:accumulate;font-family:Sans;-inkscape-font-specification:Sans"
             d="m 438.75,446.15625 c -13.13342,13.64646 -29.29488,28.50418 -42.6875,56.03125 -13.39262,27.52707 -24.0204,67.65498 -26.78125,132.0625 l 5,0.21875 c 2.74113,-63.94742 13.26893,-103.34834 26.28125,-130.09375 13.01232,-26.74541 28.51828,-40.93645 41.8125,-54.75 l -3.625,-3.46875 z"
             id="path5189"
             inkscape:connector-curvature="0" />
          <path
             style="fill:#0000ff;fill-opacity:1;fill-rule:evenodd;stroke:#000000;stroke-width:0.90584936pt"
             d="m 426.6907,462.31541 0.27088,14.13955 17.06494,-32.15258 -31.47536,18.28392 14.13954,-0.27089 z"
             id="path6167"
             inkscape:connector-curvature="0" />
        </g>
        <g
           id="g6137"
           style="fill:#ff0000;fill-opacity:1"
           transform="matrix(0.77444223,0,0,0.79430067,41.899807,134.2414)">
          <path
             style="font-size:medium;font-style:normal;font-variant:normal;font-weight:normal;font-stretch:normal;text-indent:0;text-align:start;text-decoration:none;line-height:normal;letter-spacing:normal;word-spacing:normal;text-transform:none;direction:ltr;block-progression:tb;writing-mode:lr-tb;text-anchor:start;baseline-shift:baseline;color:#000000;fill:#ff0000;fill-opacity:1;stroke:none;stroke-width:5;marker:none;visibility:visible;display:inline;overflow:visible;enable-background:accumulate;font-family:Sans;-inkscape-font-specification:Sans"
             d="M 267.40625,728.25 C 252.33482,835.91682 218.40008,879.67602 187.0625,907.78125 l 3.34375,3.71875 c 31.93514,-28.64117 66.7793,-74.05258 81.96875,-182.5625 l -4.96875,-0.6875 z"
             id="path5191"
             inkscape:connector-curvature="0" />
          <path
             style="fill:#ff0000;fill-opacity:1;fill-rule:evenodd;stroke:#000000;stroke-width:0.90584936pt"
             d="m 267.11939,748.39759 8.51714,11.28975 -5.05138,-36.04835 -14.75551,33.27574 11.28975,-8.51714 z"
             id="path6143"
             inkscape:connector-curvature="0" />
        </g>
        <g
           id="g6153"
           style="fill:#ff0000;fill-opacity:1"
           transform="matrix(0.77444223,0,0,0.79430067,41.899807,134.2414)">
          <path
             style="font-size:medium;font-style:normal;font-variant:normal;font-weight:normal;font-stretch:normal;text-indent:0;text-align:start;text-decoration:none;line-height:normal;letter-spacing:normal;word-spacing:normal;text-transform:none;direction:ltr;block-progression:tb;writing-mode:lr-tb;text-anchor:start;baseline-shift:baseline;color:#000000;fill:#ff0000;fill-opacity:1;stroke:none;stroke-width:5;marker:none;visibility:visible;display:inline;overflow:visible;enable-background:accumulate;font-family:Sans;-inkscape-font-specification:Sans"
             d="m 380.125,715.0625 -4.96875,0.71875 c 15.18944,108.50992 50.03361,153.92141 81.96875,182.5625 l 3.34375,-3.71875 C 429.13119,866.51985 395.19642,822.72932 380.125,715.0625 z"
             id="path5943"
             inkscape:connector-curvature="0" />
          <path
             style="fill:#ff0000;fill-opacity:1;fill-rule:evenodd;stroke:#000000;stroke-width:0.90584936pt"
             d="m 380.41985,735.23057 11.28974,8.51714 -14.7555,-33.27574 -5.05138,36.04835 8.51714,-11.28975 z"
             id="path6159"
             inkscape:connector-curvature="0" />
        </g>
        <g
           id="g6169"
           style="fill:#0000ff;fill-opacity:1"
           transform="matrix(0.77444223,0,0,0.79430067,41.899807,134.2414)">
          <path
             style="font-size:medium;font-style:normal;font-variant:normal;font-weight:normal;font-stretch:normal;text-indent:0;text-align:start;text-decoration:none;line-height:normal;letter-spacing:normal;word-spacing:normal;text-transform:none;direction:ltr;block-progression:tb;writing-mode:lr-tb;text-anchor:start;baseline-shift:baseline;color:#000000;fill:#0000ff;fill-opacity:1;stroke:none;stroke-width:5;marker:none;visibility:visible;display:inline;overflow:visible;enable-background:accumulate;font-family:Sans;-inkscape-font-specification:Sans"
             d="m 321.0625,406.3125 -5,0.0312 1.4375,226.03125 5,-0.0312 -1.4375,-226.03125 z"
             id="path5945"
             inkscape:connector-curvature="0" />
          <path
             style="fill:#0000ff;fill-opacity:1;fill-rule:evenodd;stroke:#000000;stroke-width:0.90584936pt"
             d="m 318.69783,426.31829 10.06299,9.9366 -10.22099,-34.9361 -9.77861,35.0625 9.93661,-10.063 z"
             id="path6175"
             inkscape:connector-curvature="0" />
        </g>
        <g
           id="g6145"
           style="fill:#ff0000;fill-opacity:1"
           transform="matrix(0.77444223,0,0,0.79430067,41.899807,134.2414)">
          <path
             style="font-size:medium;font-style:normal;font-variant:normal;font-weight:normal;font-stretch:normal;text-indent:0;text-align:start;text-decoration:none;line-height:normal;letter-spacing:normal;word-spacing:normal;text-transform:none;direction:ltr;block-progression:tb;writing-mode:lr-tb;text-anchor:start;baseline-shift:baseline;color:#000000;fill:#ff0000;fill-opacity:1;stroke:none;stroke-width:5;marker:none;visibility:visible;display:inline;overflow:visible;enable-background:accumulate;font-family:Sans;-inkscape-font-specification:Sans"
             d="m 331.0625,729.5 -5,0.0312 1.4375,213.90625 5,-0.0312 L 331.0625,729.5 z"
             id="path6135"
             inkscape:connector-curvature="0" />
          <path
             style="fill:#ff0000;fill-opacity:1;fill-rule:evenodd;stroke:#000000;stroke-width:0.90584936pt"
             d="m 328.70499,749.50459 10.06655,9.933 -10.2335,-34.93244 -9.76605,35.066 9.933,-10.06656 z"
             id="path6151"
             inkscape:connector-curvature="0" />
        </g>
        <text
           sodipodi:linespacing="125%"
           id="text7065"
           y="660.93359"
           x="67.142876"
           style="font-size:40px;font-style:normal;font-weight:normal;line-height:125%;letter-spacing:0px;word-spacing:0px;fill:#000000;fill-opacity:1;stroke:none;font-family:Sans"
           xml:space="preserve"><tspan
             id="tspan7067"
             y="660.93359"
             x="67.142876"
             sodipodi:role="line">magnet</tspan></text>
      </g>
    </g>
  </g>
</svg>
